<svg width="11" height="15" viewBox="0 0 11 15" fill="none" xmlns="http://www.w3.org/2000/svg">
<path fill-rule="evenodd" clip-rule="evenodd" d="M8.38458 0.69104C8.08576 -0.230347 6.78302 -0.230347 6.48224 0.69104L5.41388 3.98401C5.34747 4.18469 5.22052 4.3595 5.0506 4.48303C4.87872 4.60706 4.67365 4.67395 4.46271 4.67395H1.00177C0.0330217 4.67395 -0.369322 5.9137 0.413881 6.48401L3.21271 8.51672C3.38263 8.64075 3.51154 8.81604 3.57599 9.01672C3.6424 9.21741 3.6424 9.4342 3.57599 9.63489L2.50568 12.9269C2.20685 13.8478 3.26154 14.6149 4.04474 14.045L6.84552 12.0109C7.01544 11.8868 7.22247 11.8199 7.43341 11.8199C7.64435 11.8199 7.84943 11.8868 8.0213 12.0109L10.8201 14.045C10.8787 14.0875 10.9393 14.1227 10.9998 14.151V4.67297H10.4041C10.1932 4.67249 9.9881 4.60608 9.81818 4.48206C9.6463 4.35803 9.51935 4.18323 9.4549 3.98303L8.38458 0.69104Z" fill="#FEAC36"/>
</svg>
