<svg width="187" height="35" viewBox="0 0 187 35" fill="none" xmlns="http://www.w3.org/2000/svg">
<path d="M9.55682 27H0.275568V0.818181H9.63352C12.267 0.818181 14.5341 1.34233 16.4347 2.39062C18.3352 3.4304 19.7969 4.92614 20.8196 6.87784C21.8509 8.82955 22.3665 11.1648 22.3665 13.8835C22.3665 16.6108 21.8509 18.9545 20.8196 20.9148C19.7969 22.875 18.3267 24.3793 16.4091 25.4276C14.5 26.4759 12.2159 27 9.55682 27ZM5.81108 22.2571H9.3267C10.9631 22.2571 12.3395 21.9673 13.456 21.3878C14.581 20.7997 15.4247 19.892 15.9872 18.6648C16.5582 17.429 16.8438 15.8352 16.8438 13.8835C16.8438 11.9489 16.5582 10.3679 15.9872 9.14062C15.4247 7.91335 14.5852 7.00994 13.4688 6.4304C12.3523 5.85085 10.9759 5.56108 9.33949 5.56108H5.81108V22.2571ZM35.3136 27.3835C33.2937 27.3835 31.555 26.9744 30.0977 26.1562C28.6488 25.3295 27.5323 24.1619 26.7482 22.6534C25.9641 21.1364 25.5721 19.3423 25.5721 17.2713C25.5721 15.2514 25.9641 13.4787 26.7482 11.9531C27.5323 10.4276 28.636 9.23864 30.0593 8.38636C31.4911 7.53409 33.1701 7.10795 35.0962 7.10795C36.3917 7.10795 37.5977 7.31676 38.7141 7.73438C39.8391 8.14347 40.8192 8.76136 41.6545 9.58807C42.4982 10.4148 43.1545 11.4545 43.6232 12.7074C44.092 13.9517 44.3264 15.4091 44.3264 17.0795V18.5753H27.7454V15.2003H39.1999C39.1999 14.4162 39.0295 13.7216 38.6886 13.1165C38.3477 12.5114 37.8746 12.0384 37.2695 11.6974C36.6729 11.348 35.9783 11.1733 35.1857 11.1733C34.359 11.1733 33.6261 11.3651 32.9869 11.7486C32.3562 12.1236 31.8619 12.6307 31.5039 13.2699C31.146 13.9006 30.9627 14.6037 30.9542 15.3793V18.5881C30.9542 19.5597 31.1332 20.3991 31.4911 21.1065C31.8576 21.8139 32.3732 22.3594 33.038 22.7429C33.7028 23.1264 34.4911 23.3182 35.4031 23.3182C36.0082 23.3182 36.5621 23.233 37.065 23.0625C37.5678 22.892 37.9982 22.6364 38.3562 22.2955C38.7141 21.9545 38.9869 21.5369 39.1744 21.0426L44.2113 21.375C43.9556 22.5852 43.4315 23.642 42.6389 24.5455C41.8548 25.4403 40.8406 26.1392 39.5962 26.642C38.3604 27.1364 36.9329 27.3835 35.3136 27.3835ZM65.6598 7.36364L58.7947 27H52.6584L45.7933 7.36364H51.5462L55.6243 21.4134H55.8288L59.8942 7.36364H65.6598ZM76.7628 27.3835C74.7429 27.3835 73.0043 26.9744 71.5469 26.1562C70.098 25.3295 68.9815 24.1619 68.1974 22.6534C67.4134 21.1364 67.0213 19.3423 67.0213 17.2713C67.0213 15.2514 67.4134 13.4787 68.1974 11.9531C68.9815 10.4276 70.0852 9.23864 71.5085 8.38636C72.9403 7.53409 74.6193 7.10795 76.5455 7.10795C77.8409 7.10795 79.0469 7.31676 80.1634 7.73438C81.2884 8.14347 82.2685 8.76136 83.1037 9.58807C83.9474 10.4148 84.6037 11.4545 85.0724 12.7074C85.5412 13.9517 85.7756 15.4091 85.7756 17.0795V18.5753H69.1946V15.2003H80.6491C80.6491 14.4162 80.4787 13.7216 80.1378 13.1165C79.7969 12.5114 79.3239 12.0384 78.7188 11.6974C78.1222 11.348 77.4276 11.1733 76.6349 11.1733C75.8082 11.1733 75.0753 11.3651 74.4361 11.7486C73.8054 12.1236 73.3111 12.6307 72.9531 13.2699C72.5952 13.9006 72.4119 14.6037 72.4034 15.3793V18.5881C72.4034 19.5597 72.5824 20.3991 72.9403 21.1065C73.3068 21.8139 73.8224 22.3594 74.4872 22.7429C75.152 23.1264 75.9403 23.3182 76.8523 23.3182C77.4574 23.3182 78.0114 23.233 78.5142 23.0625C79.017 22.892 79.4474 22.6364 79.8054 22.2955C80.1634 21.9545 80.4361 21.5369 80.6236 21.0426L85.6605 21.375C85.4048 22.5852 84.8807 23.642 84.0881 24.5455C83.304 25.4403 82.2898 26.1392 81.0455 26.642C79.8097 27.1364 78.3821 27.3835 76.7628 27.3835ZM94.7756 0.818181V27H89.3295V0.818181H94.7756ZM108.01 27.3835C106.025 27.3835 104.307 26.9616 102.858 26.1179C101.418 25.2656 100.306 24.081 99.5217 22.5639C98.7376 21.0384 98.3455 19.2699 98.3455 17.2585C98.3455 15.2301 98.7376 13.4574 99.5217 11.9403C100.306 10.4148 101.418 9.23011 102.858 8.38636C104.307 7.53409 106.025 7.10795 108.01 7.10795C109.996 7.10795 111.709 7.53409 113.15 8.38636C114.598 9.23011 115.715 10.4148 116.499 11.9403C117.283 13.4574 117.675 15.2301 117.675 17.2585C117.675 19.2699 117.283 21.0384 116.499 22.5639C115.715 24.081 114.598 25.2656 113.15 26.1179C111.709 26.9616 109.996 27.3835 108.01 27.3835ZM108.036 23.1648C108.939 23.1648 109.694 22.9091 110.299 22.3977C110.904 21.8778 111.36 21.1705 111.667 20.2756C111.982 19.3807 112.14 18.3622 112.14 17.2202C112.14 16.0781 111.982 15.0597 111.667 14.1648C111.36 13.2699 110.904 12.5625 110.299 12.0426C109.694 11.5227 108.939 11.2628 108.036 11.2628C107.124 11.2628 106.357 11.5227 105.735 12.0426C105.121 12.5625 104.657 13.2699 104.341 14.1648C104.034 15.0597 103.881 16.0781 103.881 17.2202C103.881 18.3622 104.034 19.3807 104.341 20.2756C104.657 21.1705 105.121 21.8778 105.735 22.3977C106.357 22.9091 107.124 23.1648 108.036 23.1648ZM121.216 34.3636V7.36364H126.586V10.6619H126.828C127.067 10.1335 127.412 9.59659 127.864 9.05114C128.324 8.49716 128.921 8.03693 129.654 7.67045C130.395 7.29545 131.316 7.10795 132.415 7.10795C133.847 7.10795 135.168 7.48295 136.378 8.23295C137.588 8.97443 138.556 10.0952 139.28 11.5952C140.005 13.0866 140.367 14.9574 140.367 17.2074C140.367 19.3977 140.013 21.2472 139.306 22.7557C138.607 24.2557 137.652 25.3935 136.442 26.169C135.24 26.9361 133.894 27.3196 132.402 27.3196C131.346 27.3196 130.446 27.1449 129.705 26.7955C128.972 26.446 128.371 26.0071 127.902 25.4787C127.434 24.9418 127.076 24.4006 126.828 23.8551H126.662V34.3636H121.216ZM126.547 17.1818C126.547 18.3494 126.709 19.3679 127.033 20.2372C127.357 21.1065 127.826 21.7841 128.439 22.2699C129.053 22.7472 129.799 22.9858 130.676 22.9858C131.563 22.9858 132.313 22.7429 132.926 22.2571C133.54 21.7628 134.005 21.081 134.32 20.2116C134.644 19.3338 134.806 18.3239 134.806 17.1818C134.806 16.0483 134.648 15.0511 134.333 14.1903C134.017 13.3295 133.553 12.6562 132.939 12.1705C132.326 11.6847 131.571 11.4418 130.676 11.4418C129.79 11.4418 129.04 11.6761 128.426 12.1449C127.821 12.6136 127.357 13.2784 127.033 14.1392C126.709 15 126.547 16.0142 126.547 17.1818ZM152.946 27.3835C150.926 27.3835 149.188 26.9744 147.73 26.1562C146.282 25.3295 145.165 24.1619 144.381 22.6534C143.597 21.1364 143.205 19.3423 143.205 17.2713C143.205 15.2514 143.597 13.4787 144.381 11.9531C145.165 10.4276 146.269 9.23864 147.692 8.38636C149.124 7.53409 150.803 7.10795 152.729 7.10795C154.025 7.10795 155.23 7.31676 156.347 7.73438C157.472 8.14347 158.452 8.76136 159.287 9.58807C160.131 10.4148 160.787 11.4545 161.256 12.7074C161.725 13.9517 161.959 15.4091 161.959 17.0795V18.5753H145.378V15.2003H156.833C156.833 14.4162 156.662 13.7216 156.321 13.1165C155.98 12.5114 155.507 12.0384 154.902 11.6974C154.306 11.348 153.611 11.1733 152.819 11.1733C151.992 11.1733 151.259 11.3651 150.62 11.7486C149.989 12.1236 149.495 12.6307 149.137 13.2699C148.779 13.9006 148.596 14.6037 148.587 15.3793V18.5881C148.587 19.5597 148.766 20.3991 149.124 21.1065C149.49 21.8139 150.006 22.3594 150.671 22.7429C151.336 23.1264 152.124 23.3182 153.036 23.3182C153.641 23.3182 154.195 23.233 154.698 23.0625C155.201 22.892 155.631 22.6364 155.989 22.2955C156.347 21.9545 156.62 21.5369 156.807 21.0426L161.844 21.375C161.588 22.5852 161.064 23.642 160.272 24.5455C159.488 25.4403 158.473 26.1392 157.229 26.642C155.993 27.1364 154.566 27.3835 152.946 27.3835ZM165.513 27V7.36364H170.793V10.7898H170.998C171.355 9.57102 171.956 8.65057 172.8 8.02841C173.644 7.39773 174.615 7.08239 175.715 7.08239C175.988 7.08239 176.282 7.09943 176.597 7.13352C176.912 7.16761 177.189 7.21449 177.428 7.27415V12.1065C177.172 12.0298 176.819 11.9616 176.367 11.902C175.915 11.8423 175.502 11.8125 175.127 11.8125C174.326 11.8125 173.61 11.9872 172.979 12.3366C172.357 12.6776 171.863 13.1548 171.496 13.7685C171.138 14.3821 170.959 15.0895 170.959 15.8906V27H165.513Z" fill="#000F0D"/>
<path d="M183.427 27.3324C182.583 27.3324 181.859 27.0341 181.254 26.4375C180.657 25.8324 180.359 25.108 180.359 24.2642C180.359 23.429 180.657 22.7131 181.254 22.1165C181.859 21.5199 182.583 21.2216 183.427 21.2216C184.245 21.2216 184.961 21.5199 185.575 22.1165C186.188 22.7131 186.495 23.429 186.495 24.2642C186.495 24.8267 186.35 25.3423 186.06 25.8111C185.779 26.2713 185.408 26.642 184.948 26.9233C184.488 27.196 183.981 27.3324 183.427 27.3324Z" fill="#00A78E"/>
</svg>
